<?xml version="1.0" encoding="UTF-8"?>
<!DOCTYPE svg PUBLIC "-//W3C//DTD SVG 1.1//EN" "http://www.w3.org/Graphics/SVG/1.1/DTD/svg11.dtd">
<!-- Creator: CorelDRAW -->
<svg xmlns="http://www.w3.org/2000/svg" xml:space="preserve" width="250mm" height="180mm" version="1.1" style="shape-rendering:geometricPrecision; text-rendering:geometricPrecision; image-rendering:optimizeQuality; fill-rule:evenodd; clip-rule:evenodd"
viewBox="0 0 25000 18000"
 xmlns:xlink="http://www.w3.org/1999/xlink"
 xmlns:xodm="http://www.corel.com/coreldraw/odm/2003">
 <defs>
  <style type="text/css">
   <![CDATA[
    .fil1 {fill:none}
    .fil0 {fill:#E3E3E3}
   ]]>
  </style>
 </defs>
 <g id="Слой_x0020_1">
  <metadata id="CorelCorpID_0Corel-Layer"/>
  <path class="fil0" d="M8878.49 2330.61c198.6,-151.89 435,-169.3 672.27,-92.94 472.18,173.93 581.43,887.38 461.74,1316.16 -106.46,381.42 -854.14,1326.45 -1012.1,976.25 -151.49,-336.63 -303.31,-664.61 -461.55,-998.1 -167.89,-353.83 -159.69,-532.57 45.63,-870.04 77.62,-127.59 161.15,-220.23 275.26,-315.9l18.75 -15.43zm7574.5 -602.13c155.26,489.86 196.23,512.82 -173.77,901.74 -622.69,654.55 -2140.6,942.08 -2885.6,461.7 -974.79,-628.54 -553.3,-2392.06 763.95,-1781.16 451.95,209.58 402.79,338.77 677.34,554.79 -20.32,-129.54 -208.19,-642.2 -291.4,-736.41 -131.44,-148.81 -410.71,-201.96 -603.6,-211.06 -1112.57,-52.45 -1875.75,994.62 -1316.22,2011.32 233.28,423.89 590.63,597.9 1042.78,727.58 533.26,152.93 782.56,271.98 982.17,824.88 178.9,495.58 1320.87,5683.85 1322.31,5690.96 96.11,481.08 413.58,1671.83 528.78,2252.4 10.32,51.99 -3.14,88.78 -31.92,116.05 -328.26,236.83 -2559.76,841.02 -3122.44,1016.57 96.28,695.02 528.25,1205.12 -42.97,1737.89 124.31,67.48 306.11,84.88 440.01,170.73 415.27,266.29 649.47,753.47 817.69,1213.21 66.25,-123.89 12.81,-377.26 9.99,-537.32 -8.66,-493.19 107.09,-967.72 463.7,-1297.57 -466.94,-274.18 -556.5,-400.32 -728.18,-932.66 411.89,-195.39 917.83,-289.42 1357.74,-441.46 302.38,-104.52 675.34,-237.94 946.9,-403.45 105.58,340.02 162.73,581.06 174.68,951.7 -24.4,387.34 -85.29,1103.05 -974.5,1582.71 1602.33,186.4 1636.95,-1185.93 1636.95,-1185.93 538.47,372.48 1550.19,694.69 2221.75,149.63 322.78,-261.97 391.99,-693.45 372.86,-1073.43 -11.08,-219.91 -51.53,-549.42 -218.95,-708.75 -16.08,-14.35 -26.15,-20.47 -45.79,-28.65 165.46,359.81 102.02,694 -195.7,958.2 -108.17,93.4 -224.7,153.68 -360.24,197.22 -355.82,109.45 -1039.02,150.18 -1403.48,-236.48 -186.65,-198.01 -274.29,-482.64 -334.24,-739.02 -15.22,-65.63 -57.67,-271.73 -59.16,-321.14 0,0 188.92,-167.7 477.62,-311.36 518.33,-257.91 514.1,-44.99 829.35,3.1 -30.52,-375.78 -111.48,-874.25 -339.78,-1180.59 -244.79,198.02 -676.47,882.96 -1073.18,1073.85l-448.54 -1956.62c-214.94,-901.95 -221.64,-935.62 -610.68,-2646.14 323.18,-56.73 709.86,1.18 967.25,188.29 374.04,271.91 303.94,603.73 406.52,960.73 714.21,-565.57 388.48,-2838.96 -285.24,-3259.09 21.43,376.98 159.57,741.95 -172.36,1054.57 -225.98,212.84 -801.47,393.79 -1092.66,251.38 -158.15,-452.62 -284.99,-1209.26 -399.1,-1706.49 -96.71,-421.41 -391.92,-1157.61 115.18,-1393.61 397.42,-184.95 1088.22,-277.02 1501.64,-145.46 550.11,175.05 662.67,489.41 844.07,995.61 200.7,-240.81 216.08,-1203.68 -39.07,-1499.97 -424.03,-492.38 -1020.97,-143.79 -1502.38,-175.92 154.28,-162.56 329.83,-347 311.3,-603.63 -17.62,-244.1 -204.59,-539.73 -461.38,-533.44zm-1329.71 5778.16l-128.3 -622.32c-739.73,3.93 -1532.82,85.82 -2257.48,234.67 -76.67,-250.65 -297.04,-897.34 -92.96,-1107.25 364.01,-325.63 653.65,-205.55 675.29,282.73 352.14,-130.85 334.34,-850.06 -78.18,-1010.71 -419.14,-163.22 -789.61,144.39 -938.22,490.98 -51.42,-218.05 88.82,-622.5 208.38,-799.68 -182.46,-112.29 -276.6,-168.18 -443.12,-332.82 -155,-153.25 -249.95,-387.5 -346.48,-483.46 -151.6,363.61 94.27,489.78 -339.83,1045.86 211.24,191.52 502.09,422.45 596.9,698.23 -191.73,-144.59 -209.33,-255.85 -492.13,-293.54 -565.22,-75.31 -1029.69,664.32 -553.79,1057.24 29.06,23.99 81.89,57.52 115.44,78.03 108.4,66.2 36.64,44.97 135.64,38.71 -241.83,-510.08 227.98,-723.61 535.85,-545.9 222.55,145.57 423.8,777.49 364.36,1019.33 -6.71,27.29 34.07,-10.84 0,0 -1222.13,388.28 -2035.06,647.62 -3077.55,1467.24 -108.18,85.05 -209.3,164.21 -325.55,238.79 14.41,-502.65 -95.71,-1229.72 -126.9,-1763.67 -18.15,-310.53 -135.14,-1531.86 -78.64,-1732.16 153.67,166.39 964.38,2136.2 1124.86,2513.07l758.29 -378.61c-356.28,-759.1 -744.18,-1536.16 -1050.12,-2314.8 -37.61,-95.73 -89.07,-223.24 -115.34,-321.11 287.5,-243.76 558.19,-339.9 808.39,-659.96 423.85,-542.19 536.26,-1327.1 85.02,-1886.5 -152.38,-188.9 -342.21,-314.5 -572.43,-389.12 -868.39,-181.42 -1480.43,339.25 -1575.36,1198.18 -40.3,364.57 -34.75,732.56 -33.46,1098.78 0.32,176.57 2.56,353.02 5.4,529.56 -411.19,51.43 -1066.68,-64.16 -1373.62,-377.46 -142.83,-145.81 -113.63,-331.2 -151.46,-500.94 -308.8,362.52 -223.96,1001.29 243.47,1195.88 -655,237.43 -1371.79,453.38 -1197.59,1491.07 152.89,910.71 959.89,1492.71 1478.18,1096.39 -350.9,-106.73 -568.27,41.18 -792.44,-441.15 -158.39,-340.79 -145.29,-660.27 26.23,-977.36 294.91,-545.23 1169.49,-888.4 1793.32,-855.28 60.93,799.92 85.43,2051.29 112.11,2868.33 10.1,309.33 -4.78,618.42 9.64,930.49 12.73,275.16 44.21,186.35 -128.18,381.15 -272.96,308.43 -467.9,605.36 -625.19,997.07 -101.16,251.91 -144.81,516.82 -252.57,766.23 -146.72,339.53 -241.61,372.5 -427.38,635.82 234.68,139.85 478.65,211.98 693.14,405.36 190.25,171.5 404.68,413.26 615.88,543.49 52.15,-131.33 36.85,-537.62 7.03,-703.91 -48.56,-270.87 -199.15,-307.01 -368.58,-472.74 369.52,-393.18 417.93,-1015.74 557.25,-1095.67 -49.19,230.23 54.3,1519.19 69.38,1871.67 35.57,831.41 194.59,2823.17 -515.05,3374.03 -504.3,391.47 -1213.74,-38.84 -981.45,-881.21 -455.78,225.1 -480.81,1435.71 299.33,1650.91 338.87,93.48 755.8,47.58 1057.88,-151.3 333.27,-219.43 376.17,-413.99 554.26,-711.84 121.67,371.41 154.66,630.56 521.46,841.04 311.85,178.94 590.72,215.13 951.05,137.06 794.91,-172.25 1163.2,-918.44 963.97,-1461.14 -159.25,158.36 -121.7,319.36 -403.81,501.86 -221.53,143.33 -494.05,182.41 -742.54,115.47 -528.94,-142.48 -725.09,-547.79 -846.67,-1065.41 -274.94,-1170.56 -268.48,-3457.92 -313.19,-4733.75 -12.14,-346.61 -21.62,-372.56 205.71,-630.41 1267.89,-1265.24 3601.49,-2006.01 5362.17,-2103.01 261.54,-11.46 518.03,-8.02 779.31,7.34l30.97 2.13z"/>
  <path class="fil1" d="M7684.83 15988.9c-504.3,391.47 -1213.74,-38.84 -981.45,-881.21 -455.78,225.1 -480.81,1435.71 299.33,1650.91 338.87,93.48 755.8,47.58 1057.88,-151.3 333.26,-219.43 376.17,-413.99 554.26,-711.84 121.67,371.41 154.66,630.56 521.46,841.04 311.85,178.94 590.72,215.13 951.05,137.06 794.91,-172.25 1163.2,-918.44 963.97,-1461.14 -159.25,158.36 -121.7,319.35 -403.81,501.86 -221.53,143.33 -494.05,182.41 -742.54,115.47 -528.94,-142.48 -725.09,-547.79 -846.67,-1065.41"/>
  <path class="fil0" d="M10045.64 9069.05c127.52,244.96 1337.55,2884.04 1502.65,3256.09 385.22,992.62 1439.12,2558.97 473.78,3149.06 222.73,188.54 787.82,63.38 997.68,-112.61 746.76,-626.24 -141.58,-2107.3 -472.04,-2846.86 -558.19,-1249.23 -1166.61,-2537.67 -1758.34,-3792.43 -252.06,118.64 -529.9,236.03 -743.73,346.75z"/>
  <path class="fil0" d="M9130.09 13101.93c-44.66,130.42 -26.64,525.77 15.39,670.11 514.96,163.28 872.03,249.74 1392.65,341.21 269.85,47.41 1286.94,129.71 1526.08,45.64l-226.42 -429.28c-264.61,-19.84 -495.15,-4.35 -764.78,-40.72 -1335.29,-180.17 -1555.46,-501.85 -1942.92,-586.96z"/>
 </g>
</svg>
